<?xml version="1.0" standalone="no"?>
<!DOCTYPE svg PUBLIC "-//W3C//DTD SVG 20010904//EN"
 "http://www.w3.org/TR/2001/REC-SVG-20010904/DTD/svg10.dtd">
<svg version="1.0" xmlns="http://www.w3.org/2000/svg"
 width="2636.000000pt" height="2636.000000pt" viewBox="0 0 2636.000000 2636.000000"
 preserveAspectRatio="xMidYMid meet">
<metadata>
Created by potrace 1.14, written by Peter Selinger 2001-2017
</metadata>
<g transform="translate(0.000000,2636.000000) scale(0.100000,-0.100000)"
fill="#000000" stroke="none">
<path d="M6591 19769 l-6589 -6589 6589 -6589 6589 -6589 6585 6585 c3622
3622 6585 6589 6585 6593 0 4 -1225 1233 -2722 2730 l-2721 2721 -709 -708
-708 -708 2017 -2017 2018 -2018 -5173 -5173 -5172 -5172 -5171 5171 c-4772
4772 -5170 5172 -5158 5190 8 10 2335 2339 5172 5174 l5157 5155 2070 -2070
2070 -2070 705 705 c388 388 705 708 705 711 0 4 -1249 1256 -2775 2782
l-2775 2775 -6589 -6589z"/>
<path d="M17624 18869 l-1520 -1520 -606 605 c-333 334 -609 606 -613 606 -9
0 -1345 -1336 -1345 -1345 0 -4 272 -280 605 -613 l606 -606 -603 -603 c-332
-331 -604 -606 -605 -610 -2 -5 300 -311 670 -681 l672 -672 605 605 c333 333
608 605 611 605 4 0 279 -273 613 -606 l606 -607 676 677 676 676 -606 606
c-333 334 -606 609 -606 613 0 3 682 688 1515 1521 833 833 1515 1518 1515
1522 0 5 -1338 1348 -1344 1348 -1 0 -686 -684 -1522 -1521z"/>
<path d="M11526 18629 l-1279 -1280 -609 608 -608 608 -675 -675 -675 -675
607 -607 607 -607 -24 -27 c-14 -15 -287 -289 -608 -609 l-582 -583 676 -676
676 -676 593 593 c326 326 600 599 610 607 15 12 77 -47 623 -593 l607 -607
675 675 675 675 -608 608 -608 608 608 609 608 608 0 1348 c0 742 -2 1349 -5
1349 -3 -1 -581 -577 -1284 -1281z"/>
<path d="M6550 12665 c0 -45 439 -775 695 -1155 190 -283 521 -740 592 -819
l22 -24 -102 -151 c-56 -83 -104 -153 -107 -156 -3 -3 -9 -13 -15 -22 -5 -10
-106 -159 -223 -332 l-212 -315 162 55 c325 110 577 230 806 382 45 30 84 53
85 51 8 -12 171 -196 241 -273 181 -200 418 -441 635 -647 l123 -116 -20 -84
c-21 -83 -47 -206 -56 -264 -3 -16 -7 -43 -10 -60 -3 -16 -8 -50 -11 -75 -3
-25 -8 -61 -11 -80 -3 -19 -7 -114 -9 -210 -3 -156 0 -202 19 -303 28 -152
115 -306 182 -323 81 -20 184 72 306 271 51 84 176 339 229 467 24 59 47 108
52 108 4 0 40 -24 80 -53 116 -86 198 -142 345 -235 218 -138 337 -207 510
-297 42 -22 52 -32 53 -54 1 -14 2 -91 4 -171 3 -172 14 -476 20 -575 10 -152
25 -353 30 -385 2 -14 6 -50 10 -80 4 -30 8 -66 10 -80 2 -14 7 -45 10 -70 20
-143 65 -325 103 -414 145 -341 361 -148 609 544 25 69 46 132 48 140 2 8 19
67 38 131 29 94 84 294 103 369 2 8 10 43 18 77 9 34 18 77 21 95 3 18 7 33 8
34 1 1 27 -4 57 -12 76 -20 361 -83 402 -88 18 -3 78 -12 133 -20 235 -35 419
-47 730 -48 195 0 436 8 495 17 14 2 57 6 95 10 72 6 258 32 285 40 8 2 31 6
50 9 54 9 89 16 158 32 83 18 79 20 87 -23 10 -47 9 -40 34 -143 25 -99 25
-100 92 -330 223 -762 470 -1135 631 -952 66 76 133 269 162 467 4 23 8 51 11
64 2 13 7 49 11 80 3 31 8 63 9 72 2 9 6 52 10 95 4 43 9 86 10 94 2 8 6 65
10 125 3 61 8 128 10 150 5 57 17 430 19 562 l1 112 160 80 c266 134 518 283
759 448 l120 81 43 -96 c51 -114 168 -345 193 -381 9 -14 33 -51 54 -81 77
-117 166 -190 228 -190 85 0 187 188 218 400 9 64 7 391 -3 440 -3 14 -8 45
-11 70 -13 100 -19 140 -41 245 l-23 110 56 50 c288 254 614 578 877 870 44
48 98 108 120 131 l40 43 75 -46 c95 -58 347 -180 470 -228 148 -58 360 -128
367 -121 3 3 -1 14 -9 23 -8 10 -100 144 -203 298 -104 154 -221 328 -262 388
-40 59 -73 113 -73 120 0 7 8 22 18 33 13 14 175 223 240 309 151 200 392 542
392 554 0 5 3 11 8 13 7 3 141 203 247 368 200 312 522 871 492 854 -6 -4 -37
-28 -67 -54 -86 -73 -207 -170 -300 -240 -47 -36 -87 -67 -90 -70 -26 -28
-336 -246 -555 -391 -99 -66 -187 -124 -195 -129 -82 -55 -376 -228 -564 -333
-149 -83 -180 -97 -191 -86 -13 13 -143 205 -388 571 -62 92 -115 164 -118
160 -19 -19 -80 -221 -95 -312 -2 -14 -6 -34 -9 -45 -32 -149 -24 -432 19
-613 14 -62 14 -63 -7 -71 -12 -5 -57 -25 -100 -45 -43 -20 -81 -36 -83 -36
-3 0 -24 -9 -47 -19 -74 -33 -268 -112 -392 -159 -223 -84 -249 -92 -255 -85
-4 5 -28 58 -55 118 -64 147 -76 175 -124 278 -23 49 -41 90 -41 92 0 2 -49
105 -109 228 -107 220 -110 225 -147 238 -175 58 -266 -92 -267 -436 0 -87 10
-266 19 -332 23 -177 35 -258 48 -331 7 -40 10 -75 6 -77 -8 -5 -365 -98 -460
-120 -200 -46 -303 -66 -310 -59 -4 5 -25 68 -45 139 -88 304 -173 542 -266
740 -26 56 -101 186 -121 210 -29 36 -81 81 -111 98 -129 71 -246 -100 -343
-501 -30 -125 -72 -358 -79 -442 -1 -14 -6 -61 -9 -105 -12 -127 -14 -155 -16
-232 -2 -40 -6 -73 -9 -74 -3 0 -15 -2 -26 -4 -11 -2 -55 -7 -97 -10 -42 -3
-85 -7 -95 -9 -20 -4 -190 -16 -318 -22 -94 -5 -578 -4 -650 1 -27 2 -90 6
-140 9 -49 3 -110 8 -135 11 -25 2 -72 7 -105 10 -121 11 -239 24 -287 31
l-38 6 -1 61 c-1 34 -2 73 -4 87 -1 14 -5 68 -9 120 -35 459 -172 939 -296
1044 -157 132 -342 -126 -558 -779 -32 -99 -69 -219 -82 -267 -16 -60 -28 -88
-38 -88 -8 0 -53 9 -101 21 -47 12 -93 22 -101 24 -61 12 -461 122 -495 135
-11 5 -32 11 -47 14 -18 4 -25 11 -22 23 8 41 33 213 40 273 3 36 8 73 9 82
21 108 20 477 -1 550 -3 9 -7 27 -9 39 -9 48 -56 125 -88 147 -37 25 -103 29
-157 11 -30 -11 -40 -28 -120 -193 -48 -100 -104 -217 -124 -261 -20 -44 -43
-92 -51 -107 -8 -14 -15 -33 -15 -42 0 -9 -4 -16 -10 -16 -5 0 -10 -7 -10 -15
0 -8 -9 -31 -19 -52 -10 -21 -36 -76 -56 -123 -21 -47 -39 -87 -41 -88 -4 -5
-487 188 -498 199 -6 5 -15 9 -22 9 -7 0 -45 15 -86 34 -40 19 -100 46 -133
61 -150 67 -167 78 -160 105 19 73 29 174 29 295 0 90 -9 213 -19 270 -20 111
-55 244 -76 290 -5 11 -13 33 -19 49 -6 16 -12 27 -14 25 -1 -2 -70 -103 -151
-224 -82 -121 -184 -273 -228 -338 -54 -80 -83 -115 -91 -109 -6 5 -38 24 -71
42 -145 79 -181 100 -390 228 -334 204 -821 544 -1080 755 -33 27 -67 54 -75
60 -9 7 -55 45 -103 85 -48 40 -87 70 -87 67z"/>
</g>
</svg>
